<svg xmlns="http://www.w3.org/2000/svg" width="88.126" height="14.495" viewBox="0 0 88.126 14.495">
  <g id="Group_254" data-name="Group 254" transform="translate(-255 -930)">
    <path id="Path_332" data-name="Path 332" d="M14.2,6.261a.854.854,0,0,0-.421-1.445L9.8,4.214h0L8.118.542a.88.88,0,0,0-1.625,0L4.687,4.214h0l-4.033.6A.854.854,0,0,0,.233,6.261L3.122,9.27v.06L2.46,13.364a.934.934,0,0,0,1.324,1.023l3.371-1.926h.06l3.371,1.866A.934.934,0,0,0,11.911,13.3L11.249,9.27V9.21Z" transform="translate(255.021 930)" fill="#ff6565"/>
    <path id="Path_333" data-name="Path 333" d="M14.2,6.261a.854.854,0,0,0-.421-1.445L9.8,4.214h0L8.118.542a.88.88,0,0,0-1.625,0L4.687,4.214h0l-4.033.6A.854.854,0,0,0,.233,6.261L3.122,9.27v.06L2.46,13.364a.934.934,0,0,0,1.324,1.023l3.371-1.926h.06l3.371,1.866A.934.934,0,0,0,11.911,13.3L11.249,9.27V9.21Z" transform="translate(273.434 930)" fill="#ff6565"/>
    <path id="Path_334" data-name="Path 334" d="M14.2,6.261a.854.854,0,0,0-.421-1.445L9.8,4.214h0L8.118.542a.88.88,0,0,0-1.625,0L4.687,4.214h0l-4.033.6A.854.854,0,0,0,.233,6.261L3.122,9.27v.06L2.46,13.364a.934.934,0,0,0,1.324,1.023l3.371-1.926h.06l3.371,1.866A.934.934,0,0,0,11.911,13.3L11.249,9.27V9.21Z" transform="translate(291.848 930)" fill="#ff6565"/>
    <path id="Path_335" data-name="Path 335" d="M14.2,6.261a.854.854,0,0,0-.421-1.445L9.8,4.214h0L8.118.542a.88.88,0,0,0-1.625,0L4.687,4.214h0l-4.033.6A.854.854,0,0,0,.233,6.261L3.122,9.27v.06L2.46,13.364a.934.934,0,0,0,1.324,1.023l3.371-1.926h.06l3.371,1.866A.934.934,0,0,0,11.911,13.3L11.249,9.27V9.21Z" transform="translate(310.261 930)" fill="#ff6565"/>
    <path id="Path_336" data-name="Path 336" d="M14.2,6.261a.854.854,0,0,0-.421-1.445L9.8,4.214h0L8.118.542a.88.88,0,0,0-1.625,0L4.687,4.214h0l-4.033.6A.854.854,0,0,0,.233,6.261L3.122,9.27v.06L2.46,13.364a.934.934,0,0,0,1.324,1.023l3.371-1.926h.06l3.371,1.866A.934.934,0,0,0,11.911,13.3L11.249,9.27V9.21Z" transform="translate(328.675 930)" fill="#e9e9f0"/>
  </g>
</svg>
